<svg xmlns="http://www.w3.org/2000/svg" version="1.1" xmlns:xlink="http://www.w3.org/1999/xlink" xmlns:svgjs="http://svgjs.com/svgjs" width="1440" height="560" preserveAspectRatio="none" viewBox="0 0 1440 560"><g mask="url(&quot;#SvgjsMask5914&quot;)" fill="none"><rect width="1440" height="560" x="0" y="0" fill="url(#SvgjsLinearGradient5915)"></rect><use xlink:href="#SvgjsSymbol5922" x="0" y="0"></use><use xlink:href="#SvgjsSymbol5922" x="720" y="0"></use></g><defs><mask id="SvgjsMask5914"><rect width="1440" height="560" fill="#ffffff"></rect></mask><linearGradient x1="0%" y1="50%" x2="100%" y2="50%" gradientUnits="userSpaceOnUse" id="SvgjsLinearGradient5915"><stop stop-color="rgba(0, 18, 41, 1)" offset="0"></stop><stop stop-color="rgba(17, 21, 94, 0.92)" offset="0.74"></stop></linearGradient><path d="M-1 0 a1 1 0 1 0 2 0 a1 1 0 1 0 -2 0z" id="SvgjsPath5919"></path><path d="M-3 0 a3 3 0 1 0 6 0 a3 3 0 1 0 -6 0z" id="SvgjsPath5921"></path><path d="M-5 0 a5 5 0 1 0 10 0 a5 5 0 1 0 -10 0z" id="SvgjsPath5918"></path><path d="M2 -2 L-2 2z" id="SvgjsPath5920"></path><path d="M6 -6 L-6 6z" id="SvgjsPath5917"></path><path d="M30 -30 L-30 30z" id="SvgjsPath5916"></path></defs><symbol id="SvgjsSymbol5922"><use xlink:href="#SvgjsPath5916" x="30" y="30" stroke="#1c538e" stroke-width="3"></use><use xlink:href="#SvgjsPath5916" x="30" y="90" stroke="#1c538e" stroke-width="3"></use><use xlink:href="#SvgjsPath5917" x="30" y="150" stroke="#1c538e"></use><use xlink:href="#SvgjsPath5917" x="30" y="210" stroke="#1c538e"></use><use xlink:href="#SvgjsPath5918" x="30" y="270" stroke="#1c538e"></use><use xlink:href="#SvgjsPath5919" x="30" y="330" stroke="#1c538e"></use><use xlink:href="#SvgjsPath5920" x="30" y="390" stroke="#1c538e"></use><use xlink:href="#SvgjsPath5918" x="30" y="450" stroke="#1c538e"></use><use xlink:href="#SvgjsPath5920" x="30" y="510" stroke="#1c538e"></use><use xlink:href="#SvgjsPath5921" x="30" y="570" stroke="#1c538e"></use><use xlink:href="#SvgjsPath5917" x="90" y="30" stroke="#1c538e"></use><use xlink:href="#SvgjsPath5917" x="90" y="90" stroke="#1c538e"></use><use xlink:href="#SvgjsPath5921" x="90" y="150" stroke="#1c538e"></use><use xlink:href="#SvgjsPath5921" x="90" y="210" stroke="#1c538e"></use><use xlink:href="#SvgjsPath5918" x="90" y="270" stroke="#1c538e"></use><use xlink:href="#SvgjsPath5918" x="90" y="330" stroke="#1c538e"></use><use xlink:href="#SvgjsPath5917" x="90" y="390" stroke="#1c538e"></use><use xlink:href="#SvgjsPath5917" x="90" y="450" stroke="#1c538e"></use><use xlink:href="#SvgjsPath5917" x="90" y="510" stroke="#1c538e"></use><use xlink:href="#SvgjsPath5920" x="90" y="570" stroke="#1c538e"></use><use xlink:href="#SvgjsPath5918" x="150" y="30" stroke="#1c538e"></use><use xlink:href="#SvgjsPath5918" x="150" y="90" stroke="#1c538e"></use><use xlink:href="#SvgjsPath5921" x="150" y="150" stroke="#1c538e"></use><use xlink:href="#SvgjsPath5917" x="150" y="210" stroke="#1c538e"></use><use xlink:href="#SvgjsPath5921" x="150" y="270" stroke="#1c538e"></use><use xlink:href="#SvgjsPath5917" x="150" y="330" stroke="#1c538e"></use><use xlink:href="#SvgjsPath5918" x="150" y="390" stroke="#1c538e"></use><use xlink:href="#SvgjsPath5920" x="150" y="450" stroke="#1c538e"></use><use xlink:href="#SvgjsPath5921" x="150" y="510" stroke="#1c538e"></use><use xlink:href="#SvgjsPath5918" x="150" y="570" stroke="#1c538e"></use><use xlink:href="#SvgjsPath5919" x="210" y="30" stroke="#1c538e"></use><use xlink:href="#SvgjsPath5918" x="210" y="90" stroke="#1c538e"></use><use xlink:href="#SvgjsPath5917" x="210" y="150" stroke="#1c538e"></use><use xlink:href="#SvgjsPath5917" x="210" y="210" stroke="#1c538e"></use><use xlink:href="#SvgjsPath5919" x="210" y="270" stroke="#1c538e"></use><use xlink:href="#SvgjsPath5917" x="210" y="330" stroke="#1c538e"></use><use xlink:href="#SvgjsPath5917" x="210" y="390" stroke="#1c538e"></use><use xlink:href="#SvgjsPath5918" x="210" y="450" stroke="#1c538e"></use><use xlink:href="#SvgjsPath5917" x="210" y="510" stroke="#1c538e"></use><use xlink:href="#SvgjsPath5920" x="210" y="570" stroke="#1c538e"></use><use xlink:href="#SvgjsPath5920" x="270" y="30" stroke="#1c538e"></use><use xlink:href="#SvgjsPath5921" x="270" y="90" stroke="#1c538e"></use><use xlink:href="#SvgjsPath5917" x="270" y="150" stroke="#1c538e"></use><use xlink:href="#SvgjsPath5917" x="270" y="210" stroke="#1c538e"></use><use xlink:href="#SvgjsPath5917" x="270" y="270" stroke="#1c538e"></use><use xlink:href="#SvgjsPath5917" x="270" y="330" stroke="#1c538e"></use><use xlink:href="#SvgjsPath5918" x="270" y="390" stroke="#1c538e"></use><use xlink:href="#SvgjsPath5920" x="270" y="450" stroke="#1c538e"></use><use xlink:href="#SvgjsPath5916" x="270" y="510" stroke="#1c538e" stroke-width="3"></use><use xlink:href="#SvgjsPath5920" x="270" y="570" stroke="#1c538e"></use><use xlink:href="#SvgjsPath5918" x="330" y="30" stroke="#1c538e"></use><use xlink:href="#SvgjsPath5919" x="330" y="90" stroke="#1c538e"></use><use xlink:href="#SvgjsPath5916" x="330" y="150" stroke="#1c538e" stroke-width="3"></use><use xlink:href="#SvgjsPath5919" x="330" y="210" stroke="#1c538e"></use><use xlink:href="#SvgjsPath5920" x="330" y="270" stroke="#1c538e"></use><use xlink:href="#SvgjsPath5920" x="330" y="330" stroke="#1c538e"></use><use xlink:href="#SvgjsPath5918" x="330" y="390" stroke="#1c538e"></use><use xlink:href="#SvgjsPath5918" x="330" y="450" stroke="#1c538e"></use><use xlink:href="#SvgjsPath5921" x="330" y="510" stroke="#1c538e"></use><use xlink:href="#SvgjsPath5920" x="330" y="570" stroke="#1c538e"></use><use xlink:href="#SvgjsPath5917" x="390" y="30" stroke="#1c538e"></use><use xlink:href="#SvgjsPath5918" x="390" y="90" stroke="#1c538e"></use><use xlink:href="#SvgjsPath5918" x="390" y="150" stroke="#1c538e"></use><use xlink:href="#SvgjsPath5916" x="390" y="210" stroke="#1c538e" stroke-width="3"></use><use xlink:href="#SvgjsPath5920" x="390" y="270" stroke="#1c538e"></use><use xlink:href="#SvgjsPath5916" x="390" y="330" stroke="#1c538e" stroke-width="3"></use><use xlink:href="#SvgjsPath5919" x="390" y="390" stroke="#1c538e"></use><use xlink:href="#SvgjsPath5918" x="390" y="450" stroke="#1c538e"></use><use xlink:href="#SvgjsPath5919" x="390" y="510" stroke="#1c538e"></use><use xlink:href="#SvgjsPath5917" x="390" y="570" stroke="#1c538e"></use><use xlink:href="#SvgjsPath5921" x="450" y="30" stroke="#1c538e"></use><use xlink:href="#SvgjsPath5918" x="450" y="90" stroke="#1c538e"></use><use xlink:href="#SvgjsPath5921" x="450" y="150" stroke="#1c538e"></use><use xlink:href="#SvgjsPath5919" x="450" y="210" stroke="#1c538e"></use><use xlink:href="#SvgjsPath5920" x="450" y="270" stroke="#1c538e"></use><use xlink:href="#SvgjsPath5920" x="450" y="330" stroke="#1c538e"></use><use xlink:href="#SvgjsPath5917" x="450" y="390" stroke="#1c538e"></use><use xlink:href="#SvgjsPath5917" x="450" y="450" stroke="#1c538e"></use><use xlink:href="#SvgjsPath5918" x="450" y="510" stroke="#1c538e"></use><use xlink:href="#SvgjsPath5917" x="450" y="570" stroke="#1c538e"></use><use xlink:href="#SvgjsPath5916" x="510" y="30" stroke="#1c538e" stroke-width="3"></use><use xlink:href="#SvgjsPath5917" x="510" y="90" stroke="#1c538e"></use><use xlink:href="#SvgjsPath5918" x="510" y="150" stroke="#1c538e"></use><use xlink:href="#SvgjsPath5920" x="510" y="210" stroke="#1c538e"></use><use xlink:href="#SvgjsPath5918" x="510" y="270" stroke="#1c538e"></use><use xlink:href="#SvgjsPath5918" x="510" y="330" stroke="#1c538e"></use><use xlink:href="#SvgjsPath5921" x="510" y="390" stroke="#1c538e"></use><use xlink:href="#SvgjsPath5917" x="510" y="450" stroke="#1c538e"></use><use xlink:href="#SvgjsPath5920" x="510" y="510" stroke="#1c538e"></use><use xlink:href="#SvgjsPath5919" x="510" y="570" stroke="#1c538e"></use><use xlink:href="#SvgjsPath5918" x="570" y="30" stroke="#1c538e"></use><use xlink:href="#SvgjsPath5918" x="570" y="90" stroke="#1c538e"></use><use xlink:href="#SvgjsPath5921" x="570" y="150" stroke="#1c538e"></use><use xlink:href="#SvgjsPath5919" x="570" y="210" stroke="#1c538e"></use><use xlink:href="#SvgjsPath5918" x="570" y="270" stroke="#1c538e"></use><use xlink:href="#SvgjsPath5916" x="570" y="330" stroke="#1c538e" stroke-width="3"></use><use xlink:href="#SvgjsPath5918" x="570" y="390" stroke="#1c538e"></use><use xlink:href="#SvgjsPath5921" x="570" y="450" stroke="#1c538e"></use><use xlink:href="#SvgjsPath5917" x="570" y="510" stroke="#1c538e"></use><use xlink:href="#SvgjsPath5918" x="570" y="570" stroke="#1c538e"></use><use xlink:href="#SvgjsPath5917" x="630" y="30" stroke="#1c538e"></use><use xlink:href="#SvgjsPath5917" x="630" y="90" stroke="#1c538e"></use><use xlink:href="#SvgjsPath5917" x="630" y="150" stroke="#1c538e"></use><use xlink:href="#SvgjsPath5917" x="630" y="210" stroke="#1c538e"></use><use xlink:href="#SvgjsPath5920" x="630" y="270" stroke="#1c538e"></use><use xlink:href="#SvgjsPath5920" x="630" y="330" stroke="#1c538e"></use><use xlink:href="#SvgjsPath5917" x="630" y="390" stroke="#1c538e"></use><use xlink:href="#SvgjsPath5917" x="630" y="450" stroke="#1c538e"></use><use xlink:href="#SvgjsPath5918" x="630" y="510" stroke="#1c538e"></use><use xlink:href="#SvgjsPath5918" x="630" y="570" stroke="#1c538e"></use><use xlink:href="#SvgjsPath5920" x="690" y="30" stroke="#1c538e"></use><use xlink:href="#SvgjsPath5920" x="690" y="90" stroke="#1c538e"></use><use xlink:href="#SvgjsPath5920" x="690" y="150" stroke="#1c538e"></use><use xlink:href="#SvgjsPath5918" x="690" y="210" stroke="#1c538e"></use><use xlink:href="#SvgjsPath5918" x="690" y="270" stroke="#1c538e"></use><use xlink:href="#SvgjsPath5917" x="690" y="330" stroke="#1c538e"></use><use xlink:href="#SvgjsPath5920" x="690" y="390" stroke="#1c538e"></use><use xlink:href="#SvgjsPath5918" x="690" y="450" stroke="#1c538e"></use><use xlink:href="#SvgjsPath5920" x="690" y="510" stroke="#1c538e"></use><use xlink:href="#SvgjsPath5917" x="690" y="570" stroke="#1c538e"></use></symbol></svg>